<svg width="25" height="25" fill="none" xmlns="http://www.w3.org/2000/svg"><path d="M11.44 25a3.91 3.91 0 0 1-3.9-3.9.78.78 0 0 1 1.56 0 2.35 2.35 0 0 0 4.69 0 .78.78 0 0 1 1.56 0c0 2.15-1.75 3.9-3.9 3.9Z" fill="#FE5C73"/><path d="M20.04 21.88H2.84a1.82 1.82 0 0 1-1.1-3.28 7 7 0 0 0 2.41-5.28v-2.9a7.3 7.3 0 0 1 7.8-7.26.78.78 0 1 1-.25 1.54c-.08-.02-.18-.01-.26-.01a5.74 5.74 0 0 0-5.73 5.73v2.9c0 2.52-1.1 4.9-3.02 6.54-.02 0-.03.02-.05.03a.26.26 0 0 0-.05.16c0 .14.12.26.26.26h17.19c.14 0 .26-.12.26-.26a.25.25 0 0 0-.06-.16l-.04-.03a8.57 8.57 0 0 1-3.03-6.54V12.2a.78.78 0 0 1 1.56 0v1.13a7 7 0 0 0 2.5 5.35 1.82 1.82 0 0 1-1.2 3.2Z" fill="#FE5C73"/><path d="M18.73 10.42a5.21 5.21 0 1 1 .02-10.43 5.21 5.21 0 0 1-.02 10.43Zm0-8.86a3.65 3.65 0 1 0 .01 7.3 3.65 3.65 0 0 0 0-7.3Z" fill="#FE5C73"/></svg>