<svg width="20" height="19" fill="b1b1b1" xmlns="http://www.w3.org/2000/svg"><path d="M18.85 5.24 17.18 6.9a.44.44 0 0 1-.61 0l-4.02-4.02a.44.44 0 0 1 0-.62L14.22.6a1.74 1.74 0 0 1 2.46 0l2.17 2.18c.68.68.68 1.78 0 2.46ZM11.11 3.7l-9.5 9.5-.78 4.4c-.1.6.42 1.12 1.01 1.02l4.4-.78 9.51-9.5a.43.43 0 0 0 0-.62L11.73 3.7a.44.44 0 0 0-.62 0Zm-5.8 8.7a.5.5 0 0 1 0-.72L10.9 6.1c.2-.2.52-.2.72 0 .2.2.2.52 0 .71L6.03 12.4a.5.5 0 0 1-.72 0Zm-1.3 3.04h1.73v1.31l-2.33.41-1.13-1.12.41-2.34h1.32v1.74Z" fill="#fff"/></svg>